<?xml version="1.0" encoding="utf-8"?>
<!-- Generator: Adobe Illustrator 19.1.0, SVG Export Plug-In . SVG Version: 6.00 Build 0)  -->
<svg version="1.1" id="Layer_1" xmlns="http://www.w3.org/2000/svg" xmlns:xlink="http://www.w3.org/1999/xlink" x="0px" y="0px"
	 viewBox="-241.5 321.2 1077.5 200" style="enable-background:new -241.5 321.2 1077.5 200;" xml:space="preserve">
<style type="text/css">
	.st0{fill:#FFFFFF;}
</style>
<g>
	<polygon class="st0" points="-97.7,321.3 -97.7,422.2 -166.8,321.3 -241.5,321.3 -241.5,521.3 -167,521.3 -167,420.4 -97.9,521.3 
		-23.2,521.3 -23.2,321.3 	"/>
	<path class="st0" d="M775.8,446.4c26.5-7.4,43.5-26.4,43.5-57.1c0-51.5-40.9-68.1-94.8-68.1c-26.1,0-93,0-93,0v200h74.4v-62.5
		l44.4,62.5H836L775.8,446.4z M739.2,405.7c-4.3,3.5-12.7,5.3-19.6,5.3h-16v-39.4h15.7c7.5,0,16.1,1.8,20.2,5.4
		c4.1,3.6,6.1,8.5,6.1,14.7C745.6,397.5,743.5,402.2,739.2,405.7z"/>
	<path class="st0" d="M450,321.3h151v52.1h-77.2v23.5h71.1v49.2h-71.1v23.1h79.6v52.1H450V321.3z"/>
	<path class="st0" d="M156,321.3H71.1l-78.3,200h82.8l7.2-26.1h61.5l7.2,26.1h82.8L156,321.3z M95,448.9l17.5-66h2l17.5,66H95z"/>
	<polygon class="st0" points="352.9,321.3 316.2,441.9 314.1,441.9 277.4,321.3 196.2,321.3 280,521.3 350.3,521.3 434.1,321.3 	"/>
</g>
</svg>
